<?xml version="1.0" encoding="UTF-8" standalone="no"?>
<!-- Generator: Adobe Illustrator 17.1.0, SVG Export Plug-In . SVG Version: 6.00 Build 0)  -->

<svg
   version="1.1"
   id="Layer_1"
   x="0px"
   y="0px"
   viewBox="0 0 50 50"
   enable-background="new 0 0 50 50"
   xml:space="preserve"
   sodipodi:docname="unfullscreen.svg"
   inkscape:version="1.1.1 (3bf5ae0d25, 2021-09-20, custom)"
   xmlns:inkscape="http://www.inkscape.org/namespaces/inkscape"
   xmlns:sodipodi="http://sodipodi.sourceforge.net/DTD/sodipodi-0.dtd"
   xmlns="http://www.w3.org/2000/svg"
   xmlns:svg="http://www.w3.org/2000/svg"><defs
   id="defs66" /><sodipodi:namedview
   id="namedview64"
   pagecolor="#ffffff"
   bordercolor="#666666"
   borderopacity="1.0"
   inkscape:pageshadow="2"
   inkscape:pageopacity="0.0"
   inkscape:pagecheckerboard="0"
   showgrid="false"
   inkscape:zoom="16.62"
   inkscape:cx="25"
   inkscape:cy="25"
   inkscape:window-width="1920"
   inkscape:window-height="1048"
   inkscape:window-x="0"
   inkscape:window-y="32"
   inkscape:window-maximized="1"
   inkscape:current-layer="Layer_1" />
<path
   d="m 22.02475,28.421 c 0.122,0.05 0.252,0.077 0.382,0.077 h 11.157 c 0.553,0 1,-0.447 1,-1 0,-0.553 -0.447,-1 -1,-1 h -8.743 l 15.146,-15.146 c 0.391,-0.391 0.391,-1.023 0,-1.414 -0.195,-0.195 -0.451,-0.293 -0.707,-0.293 -0.256,0 -0.512,0.098 -0.707,0.293 l -15.146,15.145 V 16.34 c 0,-0.553 -0.447,-1 -1,-1 -0.553,0 -1,0.447 -1,1 v 11.157 c 0,0.13 0.026,0.26 0.077,0.382 0.102,0.245 0.296,0.44 0.541,0.542 z"
   id="path59" />
<path
   d="M39.26,27.985c-0.553,0-1,0.447-1,1v10.66h-28v-28h10.683c0.553,0,1-0.447,1-1s-0.447-1-1-1H9.26c-0.553,0-1,0.447-1,1v30  c0,0.553,0.447,1,1,1h30c0.553,0,1-0.447,1-1v-11.66C40.26,28.433,39.813,27.985,39.26,27.985z"
   id="path61" />
</svg>
